# xmcd
# 
# Track frame offsets:
#     150
#     16600
#     44055
#     67825
#     96400
#     119575
#     136795
#     160100
#     172415
#     185500
#     209860
#     231375
# 
# Disc length: 3342
# 
# Revision: 3
# Processed by: cddbd v1.5.2PL0 Copyright (c) Steve Scherf et al.
# Submitted via: BonkEnc v1.0.8
# 
DISCID=b20d0c0c
DTITLE=Stephan Oliva, Bruno Chevillon, Paul Motian - Fantasm
DYEAR=1999
DGENRE=Contemporary Jazz
TTITLE0=Intérieur Jour
TTITLE1=Five Miles To Wrentham
TTITLE2=Dance
TTITLE3=Sables
TTITLE4=Fantasm
TTITLE5=Blue Midnight
TTITLE6=Fiasco
TTITLE7=Impromède
TTITLE8=Etude
TTITLE9="M"
TTITLE10=Folk Song For Rosie
TTITLE11=It Should Have Happened A Long Time Ago
EXTD=BMG France
EXTT0=
EXTT1=
EXTT2=
EXTT3=
EXTT4=
EXTT5=
EXTT6=
EXTT7=
EXTT8=
EXTT9=
EXTT10=
EXTT11=
PLAYORDER=
